<svg width="800px" height="800px" fill="none" version="1.1" viewBox="0 0 24 24" xmlns="http://www.w3.org/2000/svg">
 <g transform="matrix(1.4808 0 0 1.4501 -5.3885 -5.4782)">
  <path d="m15.143 5.9395-3.4125 6.061-3.4124 6.063c2.1128 1.2704 4.7274 1.2823 6.851 0.0312s3.431-3.5734 3.4256-6.0854c-0.0053-2.5119-1.3226-4.8282-3.4517-6.0698z" clip-rule="evenodd" fill-rule="evenodd" stroke="#06b6d4" stroke-linecap="round" stroke-linejoin="round" stroke-width="1.5"/>
  <path d="m5.1668 8.1333c-0.20279 0.36117-0.0744 0.81836 0.28677 1.0212s0.81836 0.07441 1.0212-0.28677zm5.1574-2.2121c0.4025-0.09796 0.6493-0.50363 0.5514-0.90609-0.098-0.40247-0.5036-0.64932-0.90611-0.55136zm-3.8504 2.9481c0.20369-0.36067 0.07643-0.81817-0.28424-1.0219s-0.81817-0.07644-1.0219 0.28423zm-2.0038 5.3413c0.11604 0.3977 0.53245 0.6259 0.93008 0.5099 0.39762-0.116 0.6259-0.5324 0.50986-0.9301zm1.733-6.3554c-0.35639-0.21109-0.81642-0.09329-1.0275 0.26311-0.21109 0.35639-0.09329 0.81643 0.26311 1.0275zm5.5273 4.1453-0.3822 0.6453 2e-4 2e-4zm1.3076 1.6455c0.3565 0.2109 0.8165 0.093 1.0275-0.2635 0.2109-0.3564 0.093-0.8164-0.2635-1.0274zm-2.2246-8.7975c-0.19-0.36807-0.6424-0.51244-1.0104-0.32245-0.36807 0.18999-0.51244 0.64239-0.32245 1.0105zm-0.7708 6.152-0.65348-0.368-3.3e-4 6e-4zm-4.8809 2.2506c-0.41391 0.0156-0.73674 0.3639-0.72106 0.7778s0.36394 0.7368 0.77786 0.7211zm4.8061-8.7868c-0.40221 0.09898-0.64804 0.50527-0.54906 0.90749 0.09897 0.40221 0.50527 0.64804 0.90751 0.54906zm5.1752 1.4753 0.6535 0.36791c0.1999-0.35501 0.0798-0.80464-0.2705-1.0127zm-6.825 12.124-0.3813 0.6459c0.17359 0.1025 0.38114 0.1307 0.57583 0.0785 0.19469-0.0523 0.36014-0.1808 0.45903-0.3565zm-2.4073-4.2712c-0.11503-0.398-0.53085-0.6273-0.92877-0.5123-0.39793 0.115-0.62726 0.5309-0.51224 0.9288zm12.39-3.0423c0.4139-0.0157 0.7368-0.364 0.7211-0.77787-0.0157-0.41392-0.364-0.73675-0.7779-0.72107zm-5.5348 1.8831c-0.2029 0.3611-0.0747 0.8184 0.2864 1.0213 0.3612 0.2029 0.8184 0.0746 1.0213-0.2865zm1.3073 0.7355c0.2033-0.3609 0.0755-0.8183-0.2854-1.0216-0.3609-0.2032-0.8183-0.0754-1.0215 0.2855zm-1.4242 5.785c0.19 0.368 0.6424 0.5124 1.0105 0.3223 0.368-0.19 0.5124-0.6424 0.3223-1.0104zm1.1529-6.7984c-0.3564-0.2111-0.8164-0.0932-1.0275 0.2632s-0.0932 0.8164 0.2632 1.0275zm3.4574 3.7907c0.3564 0.211 0.8165 0.0932 1.0275-0.2632 0.2111-0.3564 0.0932-0.8165-0.2632-1.0275zm-10.785-7.2782c0.83621-1.4892 2.2308-2.5525 3.8494-2.9465l-0.35471-1.4574c-2.031 0.49435-3.7669 1.8249-4.8027 3.6695zm-1.307-0.73601c-1.0406 1.8426-1.2923 4.0416-0.69775 6.0789l1.4399-0.4202c-0.48178-1.6509-0.2769-3.4323 0.56391-4.9211zm0.27085 1.0141 5.9095 3.5 0.7644-1.2906-5.9095-3.5zm5.9097 3.5002 1.6896 1 0.764-1.2909-1.6897-1zm-1.8679-7.1095c0.82649 1.6012 0.79169 3.5277-0.09139 5.096l1.3071 0.736c1.1311-2.0088 1.1751-4.4704 0.1172-6.52zm-0.09172 5.0966c-0.88115 1.5682-2.4807 2.5518-4.2271 2.618l0.0568 1.4989c2.2801-0.0864 4.3473-1.3697 5.478-3.3821zm0.93741-4.7123c1.5048-0.37031 3.0917-0.13369 4.4336 0.66353l0.7661-1.2896c-1.6784-0.99712-3.6689-1.2954-5.5582-0.83048zm4.1631-0.34918-6.825 12.124 1.3071 0.7358 6.825-12.124zm-5.7901 11.846c-1.3443-0.7937-2.3448-2.0901-2.7886-3.6254l-1.441 0.4165c0.54804 1.8959 1.7871 3.5087 3.467 4.5006zm9.545-8.1666c-2.2801 0.0864-4.3473 1.3696-5.478 3.382l1.3077 0.7348c0.8811-1.5681 2.4807-2.5517 4.2271-2.6179zm-5.4776 3.3814c-1.1316 2.009-1.1756 4.4713-0.1173 6.5211l1.3328-0.6881c-0.8268-1.6015-0.792-3.5284 0.0914-5.0969zm0.2713 1.0134 4.2217 2.5 0.7643-1.2907-4.2217-2.5z" fill="#06b6d4"/>
 </g>
</svg>
