<svg width="800px" height="800px" fill="#06b6d4" version="1.1" viewBox="0 0 1024 1024" xmlns="http://www.w3.org/2000/svg">
 <g transform="matrix(1.0717 0 0 1.0714 -37.981 -39.818)">
  <path d="m512 960a448 448 0 1 1 0-896 448 448 0 0 1 0 896zm0-64a384 384 0 1 0 0-768 384 384 0 0 0 0 768z"/>
  <path d="m186.82 268.29c16-16.384 31.616-31.744 46.976-46.08 17.472 30.656 39.808 58.112 65.984 81.28l-32.512 56.448a385.98 385.98 0 0 1-80.448-91.648zm653.7-5.312a385.92 385.92 0 0 1-83.776 96.96l-32.512-56.384a322.92 322.92 0 0 0 68.48-85.76c15.552 14.08 31.488 29.12 47.808 45.184zm-374.53 182.27 11.136-63.104a323.58 323.58 0 0 0 69.76 0l11.136 63.104a387.97 387.97 0 0 1-92.032 0zm-62.72-12.8a381.82 381.82 0 0 1-83.264-35.904l32-55.424a319.88 319.88 0 0 0 62.464 27.712l-11.2 63.488zm300.8-35.84a381.82 381.82 0 0 1-83.328 35.84l-11.2-63.552a319.88 319.88 0 0 0 62.464-27.712l32 55.424zm-520.77 364.8a385.92 385.92 0 0 1 83.968-97.28l32.512 56.32c-26.88 23.936-49.856 52.352-67.52 84.032-16-13.44-32.32-27.712-48.96-43.072zm657.54 0.128a1442.8 1442.8 0 0 1-49.024 43.072 321.41 321.41 0 0 0-67.584-84.16l32.512-56.32c33.216 27.456 61.696 60.352 84.096 97.408zm-374.91-182.78a387.97 387.97 0 0 1 92.032 0l-11.136 63.104a323.58 323.58 0 0 0-69.76 0zm-62.72 12.8 11.2 63.552a319.88 319.88 0 0 0-62.464 27.712l-31.936-55.424a381.82 381.82 0 0 1 83.264-35.84zm300.8 35.84-32 55.424a318.27 318.27 0 0 0-62.528-27.712l11.2-63.488c29.44 8.64 57.28 20.736 83.264 35.776z"/>
 </g>
</svg>
