<svg width="800px" height="800px" version="1.1" viewBox="0 0 24 24" xmlns="http://www.w3.org/2000/svg">
 <path d="m11.791 1.2624c-0.01658 0-0.03287 1.573e-4 -0.04893 4.101e-4 -0.01606 2.529e-4 -0.03189 6.039e-4 -0.04746 0.00111-0.01557 5.095e-4 -0.03093 0.00116-0.04605 0.00193-0.01513 7.698e-4 -0.03004 0.00166-0.04477 0.0027-0.01472 0.00103-0.02924 0.00221-0.04359 0.00352-0.01436 0.0013-0.02857 0.00276-0.0426 0.00434-0.01403 0.00157-0.02791 0.00325-0.04166 0.0051s-0.02734 0.00385-0.04084 0.00598-0.0269 0.00439-0.0402 0.0068-0.02648 0.00498-0.03961 0.00768-0.0262 0.00551-0.0392 0.0085-0.02593 0.00615-0.03885 0.00943-0.0258 0.00667-0.03867 0.010254c-0.01287 0.00358-0.02575 0.00731-0.03861 0.011191-0.01286 0.00388-0.02572 0.00794-0.03861 0.012129-0.01289 0.00419-0.02582 0.00851-0.03879 0.013008-0.01297 0.00449-0.02595 0.00914-0.03902 0.013945-0.01308 0.00481-0.02626 0.00976-0.03949 0.014883-0.01323 0.00512-0.02654 0.010435-0.03996 0.015879-0.01342 0.00544-0.02695 0.011048-0.04061 0.016816-0.0273 0.011536-0.05509 0.023708-0.08355 0.036563-0.02847 0.012855-0.05759 0.026402-0.08754 0.040605s-0.06072 0.029067-0.09246 0.044648-0.06446 0.031878-0.09832 0.048867c-0.06772 0.033979-0.13994 0.070775-0.21803 0.11057-0.05708 0.029085-0.11732 0.059749-0.18111 0.092051-0.0638 0.032301-0.13117 0.066283-0.20268 0.10189-0.03575 0.017806-0.07252 0.036017-0.11039 0.054668-0.03787 0.018651-0.07685 0.037739-0.11695 0.057246-0.04011 0.019508-0.08134 0.039448-0.12381 0.059824-0.04247 0.020376-0.08618 0.041146-0.13113 0.062402-0.03934 0.018601-0.07918 0.037221-0.11953 0.05584-0.04035 0.018619-0.08121 0.037228-0.12264 0.05584-0.04143 0.018611-0.08342 0.037262-0.12598 0.05584-0.04256 0.018578-0.08568 0.037086-0.12943 0.055605-0.04375 0.01852-0.08812 0.037052-0.13312 0.055488-0.045 0.018436-0.09068 0.03681-0.13699 0.055137-0.04631 0.018327-0.09329 0.036592-0.14098 0.054785-0.04768 0.018193-0.09608 0.036284-0.1452 0.054316-0.04912 0.018033-0.09893 0.036-0.14953 0.053848-0.05061 0.017848-0.102 0.035625-0.15416 0.053262-0.05216 0.017637-0.10508 0.035158-0.15885 0.052559-0.05377 0.017401-0.10833 0.034657-0.16377 0.051797-0.05544 0.017138-0.11176 0.034122-0.16893 0.050975-0.05717 0.016853-0.11519 0.033557-0.17414 0.050098-0.02948 0.00827-0.05918 0.016539-0.08912 0.024726-0.02994 0.00819-0.06013 0.016332-0.09053 0.024434-0.0304 0.0081-0.061 0.016128-0.09188 0.024141-0.03087 0.00801-0.06198 0.015986-0.09334 0.023906s-0.06296 0.015788-0.09481 0.023613c-0.03184 0.00782-0.06393 0.015594-0.09627 0.02332-0.03234 0.00773-0.06495 0.015403-0.09779 0.023027-0.03284 0.00762-0.06596 0.015215-0.09932 0.022734-0.03335 0.00752-0.06697 0.014972-0.10084 0.022383-0.03387 0.00741-0.06797 0.01479-0.10236 0.02209-0.0344 0.0073-0.06907 0.014553-0.104 0.021738-0.03493 0.00719-0.07012 0.014319-0.10559 0.021387-0.03547 0.00707-0.07121 0.01403-0.10723 0.020976-0.03602 0.00695-0.07235 0.013861-0.10893 0.020684-0.03657 0.00682-0.07343 0.013578-0.11057 0.020274-0.03714 0.0067-0.07456 0.013298-0.11227 0.019863-0.03771 0.00657-0.07568 0.01308-0.11396 0.019512-0.03828 0.00643-0.07685 0.012807-0.11572 0.019102-0.03887 0.00629-0.07808 0.012536-0.11754 0.018691-0.03946 0.00616-0.07917 0.012211-0.11924 0.018223-0.04006 0.00601-0.08044 0.011947-0.12111 0.017813-0.04067 0.00587-0.08164 0.011686-0.12293 0.017402-0.04129 0.00572-0.0829 0.01137-0.1248 0.016934-0.04191 0.00556-0.08414 0.010998-0.12668 0.016406-0.04254 0.00541-0.08538 0.010747-0.12856 0.015996-0.04318 0.00525-0.08667 0.01044-0.13049 0.015527-0.04382 0.00509-0.08795 0.010078-0.13242 0.015-0.04447 0.00492-0.08928 0.00978-0.13441 0.014531-0.04513 0.00475-0.09061 0.00942-0.13641 0.014004-0.0458 0.00458-0.09192 0.00907-0.1384 0.013477-0.04647 0.00441-0.09329 0.00872-0.14045 0.012949-0.04716 0.00423-0.09465 0.00837-0.1425 0.012422-0.04785 0.00405-0.09606 0.00803-0.14461 0.011895-0.04854 0.00386-0.09747 0.00763-0.14672 0.011309-0.04925 0.00368-0.09881 0.00724-0.14877 0.010723-0.04996 0.00349-0.10032 0.00684-0.151 0.010137-0.01226 7.965e-4 -0.02443 0.00176-0.03656 0.00281s-0.02422 0.00221-0.03621 0.00352-0.02389 0.00278-0.03574 0.00434c-0.01186 0.00156-0.02367 0.00324-0.03539 0.00504s-0.02335 0.0037-0.03492 0.00574-0.02308 0.00422-0.03451 0.0065-0.02282 0.00469-0.0341 0.00721-0.02244 0.00517-0.03357 0.00791c-0.01114 0.00274-0.02224 0.00558-0.03322 0.00855-0.01099 0.00297-0.02186 0.00607-0.03269 0.00926s-0.02161 0.00649-0.03228 0.0099c-0.01068 0.00341-0.02129 0.00693-0.03182 0.010547-0.01052 0.00362-0.02098 0.0073-0.03135 0.011133-0.01037 0.00383-0.02062 0.0078-0.03082 0.011836-0.01021 0.00404-0.02037 0.00818-0.03041 0.012422-0.01004 0.00424-0.02 0.00857-0.02988 0.013008-0.0099 0.00443-0.01964 0.00897-0.02936 0.013594-0.0097 0.00463-0.01934 0.00931-0.02889 0.014121-0.0095 0.00482-0.01899 0.00977-0.02836 0.014766-0.0094 5e-3 -0.01869 0.010053-0.02789 0.015234-0.0092 0.00518-0.01834 0.010463-0.02736 0.01582-9e-3 0.00536-0.01798 0.010817-0.02684 0.016348-0.0089 0.00553-0.01758 0.011117-0.02625 0.016816-0.0087 0.0057-0.01729 0.011539-0.02578 0.017402-0.0085 0.00586-0.01688 0.011788-0.0252 0.017812-0.0083 0.00602-0.01654 0.012101-0.02467 0.018281-0.0081 0.00618-0.01614 0.012476-0.02408 0.018809-0.0079 0.00633-0.0158 0.012738-0.02355 0.019219-0.0078 0.00648-0.01541 0.013004-0.02297 0.019629-0.0076 0.00663-0.01507 0.013332-0.02244 0.020098-0.0074 0.00677-0.01462 0.013606-0.0218 0.020508-0.0072 0.0069-0.01429 0.013884-0.02127 0.020918-7e-3 0.00703-0.01384 0.014108-0.02063 0.021269-0.0068 0.00716-0.01346 0.014394-0.02004 0.02168-0.0066 0.00729-0.01307 0.014626-0.01945 0.022031-0.0064 0.00741-0.01269 0.014861-0.01887 0.022383-0.0062 0.00752-0.01225 0.015101-0.01822 0.022734-6e-3 0.00763-0.01182 0.015345-0.01758 0.023086-0.0058 0.00774-0.01144 0.015534-0.01699 0.023379-0.0056 0.00784-0.01101 0.015727-0.01635 0.023672-0.0053 0.00794-0.01058 0.015925-0.0157 0.023965-0.0051 0.00804-0.01015 0.016126-0.01506 0.024258-0.0049 0.00813-0.0097 0.016332-0.01441 0.024551-0.0047 0.00822-0.0092 0.016483-0.01371 0.024785-0.0045 0.0083-0.0089 0.016637-0.01313 0.025019-0.0043 0.00838-0.0084 0.016797-0.01242 0.025254-4e-3 0.00846-0.0079 0.01696-0.01172 0.025488-0.0038 0.00853-0.0075 0.017068-0.01107 0.025664-0.0036 0.0086-7e-3 0.01724-0.01037 0.025898-0.0033 0.00866-0.0066 0.017356-0.0097 0.026074-0.0031 0.00872-0.0061 0.017477-9e-3 0.02625-0.0029 0.00877-0.0056 0.017543-0.0083 0.026367-0.0026 0.00882-0.0052 0.017672-0.0076 0.026543-0.0024 0.00887-0.0047 0.017805-0.0069 0.026719-0.0022 0.00891-0.0042 0.017825-0.0062 0.026777-0.0019 0.00895-0.0037 0.017907-0.0054 0.026895-0.0017 0.00899-0.0033 0.017993-0.0047 0.027012-0.0014 0.00902-0.0027 0.018084-0.0039 0.027129-0.0012 0.00905-0.0022 0.01812-0.0032 0.027187-9.34e-4 0.00907-0.0017 0.018101-0.0024 0.027188-6.82e-4 0.00909-0.0013 0.018204-0.0017 0.027305-4.28e-4 0.0091-7.07e-4 0.018193-8.79e-4 0.027305-1.72e-4 0.00911-2.03e-4 0.018246-1.17e-4 0.027363 8.6e-5 0.00912 2.99e-4 0.018243 6.44e-4 0.027363 0.0038 0.10125 0.0079 0.20244 0.01231 0.30363 0.0044 0.1012 9e-3 0.2024 0.01389 0.30352 0.0049 0.10111 0.01004 0.20217 0.01547 0.30316 0.0054 0.10099 0.01108 0.20191 0.01705 0.30275 6e-3 0.10084 0.01224 0.20158 0.01875 0.30223 0.0065 0.10065 0.01327 0.20121 0.02033 0.30164 0.0071 0.10043 0.01441 0.20076 0.02203 0.30094 0.0076 0.10017 0.01549 0.20018 0.02367 0.30006 0.0082 0.099882 0.01668 0.19962 0.02543 0.29918 0.0087 0.099557 0.01775 0.19893 0.02707 0.29812 0.0093 0.099198 0.01893 0.19821 0.02883 0.29701 0.0099 0.098804 0.02005 0.19741 0.03053 0.29578 0.01048 0.098376 0.02128 0.19652 0.03234 0.29443 0.01107 0.09791 0.02244 0.19561 0.0341 0.29303 0.01166 0.09742 0.0236 0.19456 0.03586 0.29145 0.01226 0.09689 0.02481 0.19348 0.03768 0.2898 0.01286 0.09632 0.02602 0.19238 0.03949 0.28811 0.01347 0.09572 0.02722 0.19114 0.04131 0.28623 0.01409 0.09509 0.02854 0.18982 0.04324 0.28424 0.01471 0.09442 0.02973 0.18853 0.04506 0.28225 0.01533 0.09372 0.03097 0.18704 0.04693 0.28002s0.03221 0.18558 0.04881 0.27779c0.0166 0.09221 0.03356 0.18404 0.0508 0.27545 0.01724 0.0914 0.03479 0.18242 0.05268 0.27299 0.01789 0.09056 0.03607 0.18066 0.05461 0.27035 0.0093 0.04485 0.01863 0.08962 0.02807 0.13424 0.0094 0.04462 0.01899 0.08909 0.02859 0.13348 0.0096 0.04439 0.01924 0.08868 0.029 0.13283 0.0098 0.04416 0.0196 0.08821 0.02953 0.13213 0.0099 0.04392 0.01996 0.08775 0.03006 0.13143 0.0101 0.04368 0.02026 0.08723 0.03053 0.13066 0.01026 0.04343 0.02062 0.08672 0.03105 0.1299 0.01043 0.04318 0.02098 0.08621 0.03158 0.12914 0.0106 0.04293 0.02128 0.08571 0.03205 0.12838 0.01077 0.04267 0.02164 0.08521 0.03258 0.12762 0.01094 0.0424 0.02194 0.08466 0.03305 0.1268 0.01111 0.04214 0.02235 0.08417 0.03363 0.12604 0.01128 0.04186 0.02265 0.08357 0.0341 0.12516 0.01146 0.04159 0.023 0.08303 0.03463 0.12434 0.0119 0.04228 0.02387 0.08436 0.03592 0.12621 0.01205 0.04185 0.02414 0.0835 0.03633 0.12492 0.01219 0.04142 0.02446 0.08264 0.0368 0.12363 0.01234 0.041 0.02479 0.08178 0.03727 0.12234 0.01248 0.04057 0.025 0.08092 0.03762 0.12105 0.01262 0.04014 0.02532 0.08006 0.03809 0.11977 0.01276 0.0397 0.02559 0.07915 0.0385 0.11842 0.0129 0.03927 0.02592 0.07835 0.03896 0.11719 0.01304 0.03884 0.02613 0.07744 0.03932 0.11584 0.01319 0.0384 0.02646 0.07659 0.03979 0.11455 0.01332 0.03797 0.02668 0.07573 0.04014 0.11326 0.01346 0.03753 0.02701 0.07482 0.0406 0.11191 0.0136 0.03709 0.02728 0.07398 0.04102 0.11062 0.01374 0.03665 0.0275 0.07307 0.04137 0.10928 0.01387 0.03621 0.02783 0.07217 0.04184 0.10793 0.014 0.03576 0.02811 0.07132 0.04225 0.10664 0.01414 0.03532 0.02833 0.07042 0.0426 0.10529 0.01427 0.03488 0.0286 0.06952 0.04301 0.10394 0.0144 0.03443 0.02888 0.06867 0.04342 0.10266 0.01454 0.03398 0.0291 0.06772 0.04377 0.10125s0.02944 0.06682 0.04424 0.0999 0.02966 0.06598 0.04459 0.09861 0.02989 0.06503 0.04494 0.09721 0.03017 0.06413 0.04535 0.09586 0.03045 0.06324 0.04576 0.09451 0.03068 0.06229 0.04611 0.0931c0.01544 0.03082 0.03091 0.0614 0.04647 0.09176s0.03119 0.06051 0.04687 0.09041 0.03142 0.05956 0.04723 0.089 0.03171 0.05862 0.04764 0.0876 0.03193 0.05773 0.04799 0.08625c0.01605 0.02852 0.03217 0.05679 0.04834 0.08484s0.0324 0.05591 0.04869 0.0835 0.03263 0.05491 0.04904 0.08203 0.03292 0.05403 0.04945 0.08068 0.03309 0.05309 0.04975 0.07928c0.01665 0.02619 0.03339 0.05215 0.05016 0.07787s0.03356 0.05116 0.05045 0.07641c0.01688 0.02525 0.03386 0.05028 0.05086 0.07506s0.03404 0.04929 0.05115 0.07359c0.01712 0.0243 0.03427 0.04842 0.0515 0.07225s0.03451 0.04737 0.05185 0.07072 0.03475 0.0465 0.05221 0.06938 0.03499 0.04551 0.05256 0.06791 0.03517 0.04453 0.05285 0.06645 0.03541 0.0436 0.0532 0.06504 0.03566 0.04268 0.05355 0.06363c0.0179 0.02096 0.03584 0.04164 0.05385 0.06211s0.03608 0.04071 0.0542 0.0607c0.01811 0.01999 0.03627 0.03973 0.05449 0.05924s0.03652 0.03881 0.05484 0.05783c0.01833 0.01902 0.0367 0.03778 0.05514 0.05631 0.01843 0.01853 0.03689 0.0368 0.05543 0.05484s0.03714 0.03583 0.05578 0.05338 0.03733 0.03485 0.05607 0.05191 0.03752 0.03388 0.05637 0.05045 0.03777 0.03291 0.05672 0.04898c0.01895 0.01608 0.03796 0.03188 0.05701 0.04746s0.03815 0.03091 0.0573 0.046c0.01915 0.01508 0.03835 0.02995 0.0576 0.04453 0.01925 0.01459 0.03854 0.02892 0.05789 0.04301s0.03874 0.0279 0.05818 0.04148c0.01945 0.01359 0.03893 0.02693 0.05848 0.04002 0.01954 0.01309 0.03913 0.02591 0.05877 0.0385 0.12374 0.0793 0.24608 0.15796 0.36703 0.2359 0.12095 0.07794 0.24052 0.15519 0.35859 0.23168 0.11808 0.07649 0.2347 0.15221 0.3498 0.22717 0.11511 0.07495 0.22867 0.14915 0.34072 0.22248 0.11205 0.07333 0.22256 0.14582 0.33146 0.21744 0.1089 0.07162 0.21619 0.14234 0.32186 0.21217 0.10566 0.06983 0.20974 0.13878 0.31207 0.20672 0.10234 0.06794 0.20296 0.13489 0.30188 0.20086 0.09892 0.06597 0.1961 0.13091 0.2915 0.19482 0.0954 0.06391 0.18904 0.12679 0.28084 0.18855 0.0918 0.06176 0.18177 0.1224 0.26988 0.18193 0.08811 0.05953 0.17436 0.11793 0.25869 0.17514 0.16866 0.11442 0.32966 0.22415 0.48264 0.32877 0.15298 0.10462 0.29795 0.20413 0.43453 0.29824 0.01441 0.0099 0.02898 0.01952 0.04371 0.02883 0.01473 0.0093 0.02957 0.01833 0.04459 0.02701 0.01502 0.0087 0.03023 0.01707 0.04553 0.02514 0.0153 0.0081 0.03073 0.01582 0.04629 0.02326 0.01556 0.0074 0.0312 0.01456 0.04699 0.02139 0.01579 0.0068 0.03169 0.01337 0.0477 0.01957s0.03214 0.01205 0.04834 0.01764c0.0162 0.0056 0.03249 0.01086 0.04887 0.01582 0.01638 5e-3 0.03286 0.0097 0.0494 0.014 0.01653 0.0043 0.03314 0.0083 0.0498 0.01207 0.01666 0.0037 0.03338 0.0072 0.05016 0.01025 0.01678 0.0031 0.03358 0.0059 0.05045 0.0084s0.0338 0.0046 0.05074 0.0065 0.03393 0.0034 0.05092 0.0046 0.03401 0.0022 0.05103 0.0028c0.01702 6.21e-4 0.03406 9.38e-4 0.05109 9.38e-4s0.03401-3.17e-4 0.05104-9.38e-4c0.01702-6.2e-4 0.03404-0.0016 0.05104-0.0028 0.01699-0.0012 0.03398-0.0028 0.05092-0.0046 0.01694-0.0019 0.03387-4e-3 0.05074-0.0065s0.03367-0.0053 0.05045-0.0084 0.03349-0.0065 0.05016-0.01025c0.01666-0.0037 0.03327-0.0077 0.0498-0.01207 0.01653-0.0043 0.03296-9e-3 0.04934-0.014s0.03267-0.01024 0.04887-0.01582c0.0162-0.0056 0.03233-0.01143 0.04834-0.01764 0.01601-0.0062 0.03191-0.01275 0.0477-0.01957 0.01579-0.0068 0.03144-0.01394 0.04699-0.02139 0.01555-0.0074 0.03099-0.0152 0.04629-0.02326 0.0153-0.0081 0.03051-0.01645 0.04553-0.02514 0.01502-0.0087 0.02987-0.0177 0.04459-0.02701 0.01472-0.0093 0.02931-0.0189 0.04371-0.02883 0.13658-0.09411 0.28155-0.19363 0.43453-0.29824s0.31398-0.21435 0.48264-0.32877c0.08433-0.05721 0.17058-0.11561 0.25869-0.17514 0.08812-0.05953 0.17808-0.12017 0.26988-0.18193 0.09181-0.06176 0.18543-0.12464 0.28084-0.18855 0.09541-0.06391 0.19264-0.12886 0.29156-0.19482 0.09892-0.06597 0.19954-0.13292 0.30188-0.20086 0.10234-0.06794 0.2064-0.13689 0.31207-0.20672 0.10567-0.06983 0.21295-0.14054 0.32186-0.21217 0.10891-0.07162 0.21941-0.14411 0.33146-0.21744 0.11205-0.07333 0.22567-0.14752 0.34078-0.22248 0.11511-0.07496 0.23173-0.15068 0.3498-0.22717 0.11808-0.07649 0.23758-0.15374 0.35854-0.23168 0.12095-0.07794 0.24336-0.1566 0.36709-0.2359 0.01964-0.01258 0.03917-0.02541 0.05871-0.0385s0.03903-0.02643 0.05848-0.04002c0.01944-0.01359 0.0389-0.0274 0.05824-0.04148 0.01935-0.01409 0.03864-0.02842 0.05789-0.04301s0.03845-0.02945 0.0576-0.04453 0.0382-0.03042 0.05725-0.046 0.03806-0.03139 0.05701-0.04746 0.03787-0.03242 0.05672-0.04898c0.01885-0.01657 0.03762-0.03339 0.05637-0.05045s0.03743-0.03436 0.05607-0.05191 0.03724-0.03534 0.05578-0.05338 0.037-0.03631 0.05543-0.05484 0.03687-0.03729 0.05519-0.05631c0.01833-0.01902 0.03656-0.03833 0.05479-0.05783 0.01822-0.0195 0.03638-0.03925 0.05449-0.05924s0.03619-0.04023 0.0542-0.0607 0.03595-0.04115 0.05385-0.06211 0.03576-0.04219 0.05355-0.06363 0.03552-0.04306 0.0532-0.06498 0.03528-0.0441 0.05285-0.0665 0.0351-0.04503 0.05256-0.06791 0.03486-0.04596 0.05221-0.06932c0.01734-0.02335 0.03463-0.04695 0.05185-0.07078 0.01723-0.02383 0.03439-0.04789 0.0515-0.07219 0.01712-0.0243 0.03415-0.04888 0.05115-0.07365 0.017-0.02478 0.03397-0.04975 0.05086-0.075s0.03368-0.05075 0.05045-0.07647 0.03351-0.05168 0.05016-0.07787 0.03327-0.05262 0.0498-0.07928 0.03298-0.0535 0.04939-0.08062c0.01642-0.02712 0.03275-0.0545 0.04904-0.08209s0.03258-0.05538 0.04875-0.08344c0.01618-0.02805 0.03229-0.05639 0.04834-0.0849 0.01605-0.02852 0.032-0.05721 0.04793-0.08619s0.03183-0.05822 0.04764-0.08766 0.03154-0.0591 0.04723-0.089 0.03131-0.06005 0.04687-0.09041 0.03103-0.06094 0.04647-0.09176c0.01544-0.03081 0.0308-0.06184 0.04611-0.0931 0.01531-0.03127 0.03058-0.06279 0.04576-0.09451s0.0303-0.06368 0.04535-0.09586 0.03007-0.06458 0.045-0.09721 0.02979-0.06547 0.04459-0.09856c0.0148-0.03308 0.02951-0.06637 0.04418-0.0999s0.02923-0.06733 0.04377-0.10131c0.01454-0.03398 0.02901-0.06817 0.04342-0.1026 0.0144-0.03443 0.02874-0.06907 0.04301-0.10394 0.01427-0.03487 0.02852-0.06997 0.04266-0.10529 0.01414-0.03532 0.02818-0.07088 0.04219-0.10664 0.014-0.03576 0.02797-0.07172 0.04184-0.10793s0.02769-0.07263 0.04143-0.10928c0.01374-0.03665 0.02736-0.07354 0.04096-0.11062 0.0136-0.03709 0.02714-0.07439 0.0406-0.11192 0.01346-0.03753 0.02687-0.07524 0.0402-0.1132 0.01332-0.03796 0.02654-0.07615 0.03973-0.11455s0.02633-0.07706 0.03937-0.1159c0.01305-0.03884 0.026-0.07786 0.03891-0.11713 0.01291-0.03927 0.02573-0.07877 0.0385-0.11848 0.01276-0.0397 0.02546-0.07963 0.03808-0.11977 0.01262-0.04013 0.0252-0.08049 0.03768-0.12106 0.01248-0.04056 0.02487-0.08135 0.03721-0.12234 0.01234-0.04099 0.02461-0.08215 0.0368-0.12358 0.01219-0.04142 0.02434-0.08307 0.03639-0.12492 0.01205-0.04185 0.02402-0.08394 0.03592-0.12621 0.01163-0.04131 0.02317-0.08275 0.03463-0.12434 0.01146-0.04159 0.02282-0.08329 0.0341-0.12516 0.01128-0.04186 0.02246-0.0839 0.03357-0.12604 0.01111-0.04214 0.02216-0.08439 0.0331-0.1268 0.01094-0.0424 0.02181-0.08495 0.03258-0.12762 0.01077-0.04267 0.02145-0.08545 0.03205-0.12838 0.0106-0.04293 0.02109-0.08596 0.03152-0.12914s0.02079-0.08647 0.03106-0.1299c0.01026-0.04343 0.02043-0.08699 0.03053-0.13066 0.0101-0.04368 0.02013-0.08751 0.03006-0.13143 0.0099-0.04392 0.01977-0.08797 0.02953-0.13213 0.0098-0.04416 0.01946-0.08844 0.02906-0.13283 0.0096-0.04439 0.0191-0.08886 0.02854-0.13348 0.0094-0.04462 0.0188-0.08939 0.02807-0.13424 0.01854-0.08969 0.03678-0.17984 0.05467-0.27041 0.01789-0.09057 0.03544-0.18152 0.05268-0.27293 0.01724-0.0914 0.03414-0.18324 0.05074-0.27545s0.0329-0.18481 0.04887-0.27779c0.01596-0.09298 0.0316-0.1863 0.04693-0.28002 0.01533-0.09372 0.03035-0.18782 0.04506-0.28225 0.01471-0.09442 0.0291-0.18921 0.04318-0.2843 0.01409-0.09509 0.02784-0.19051 0.04131-0.28623 0.01347-0.09572 0.02669-0.19172 0.03955-0.28805 0.01286-0.09632 0.02542-0.19292 0.03768-0.2898 0.01226-0.09689 0.0242-0.19409 0.03586-0.2915 0.01166-0.09742 0.02304-0.19505 0.0341-0.29297 0.01107-0.09792 0.02181-0.19611 0.03229-0.29449 0.01048-0.098377 0.02063-0.19698 0.03053-0.29578 0.0099-0.098806 0.01951-0.19781 0.02883-0.29701 0.0093-0.099199 0.01838-0.19857 0.02713-0.29812 0.0087-0.099559 0.01719-0.1993 0.02537-0.29918 0.0082-0.099884 0.01606-0.19994 0.02367-0.30012 0.0076-0.10017 0.01497-0.20045 0.02203-0.30088 0.0071-0.10043 0.01382-0.20099 0.02033-0.30164 0.0065-0.10065 0.01273-0.20144 0.01869-0.30229 6e-3 -0.10084 0.01169-0.20176 0.01711-0.30275 0.0054-0.101 0.01058-0.20205 0.01547-0.30316 0.0049-0.10111 0.0095-0.20226 0.01389-0.30346 0.0044-0.1012 0.0084-0.20244 0.01225-0.30369 3.47e-4 -0.00912 5.58e-4 -0.018245 6.45e-4 -0.027363 8.7e-5 -0.00912 5.4e-5 -0.018252-1.17e-4 -0.027363-1.72e-4 -0.00911-4.52e-4 -0.018204-8.79e-4 -0.027305-4.28e-4 -0.0091-1e-3 -0.018218-0.0017-0.027305-6.82e-4 -0.00909-0.0015-0.01812-0.0024-0.027188-9.33e-4 -0.00907-2e-3 -0.018142-0.0032-0.027187-0.0012-0.00905-0.0025-0.018111-0.0039-0.027129-0.0014-0.00902-3e-3 -0.018024-0.0047-0.027012-0.0017-0.00899-0.0035-0.017942-0.0054-0.026895-0.0019-0.00895-0.0039-0.017863-0.0061-0.026777-0.0022-0.00891-0.0045-0.017848-0.0069-0.026719-0.0024-0.00887-0.0049-0.017719-0.0076-0.026543-0.0026-0.00882-0.0054-0.017594-0.0083-0.026367-0.0029-0.00877-0.0059-0.017532-9e-3 -0.02625-0.0031-0.00872-0.0063-0.017415-0.0097-0.026074-0.0033-0.00866-0.0068-0.017303-0.01037-0.025898-0.0036-0.0086-0.0073-0.017135-0.01107-0.025664-0.0038-0.00853-0.0078-0.017031-0.01178-0.025488-4e-3 -0.00846-0.0082-0.016872-0.01242-0.025254-0.0043-0.00838-0.0086-0.016717-0.01307-0.025019-0.0045-0.0083-0.0091-0.016566-0.01377-0.024785-0.0047-0.00822-0.0094-0.016419-0.01436-0.024551-0.0049-0.00813-0.0099-0.016218-0.01506-0.024258-0.0051-0.00804-0.01036-0.01602-0.0157-0.023965-0.0053-0.00794-0.01079-0.015827-0.01635-0.023672-0.0056-0.00784-0.01123-0.015638-0.01699-0.023379-0.0058-0.00774-0.01166-0.015453-0.01764-0.023086-6e-3 -0.00763-0.01205-0.015213-0.01822-0.022734-0.0062-0.00752-0.01243-0.014977-0.01881-0.022383-0.0064-0.00741-0.01287-0.014746-0.01945-0.022031-0.0066-0.00729-0.01326-0.014518-0.02004-0.02168-0.0068-0.00716-0.0137-0.014236-0.02068-0.021269-7e-3 -0.00703-0.01403-0.014016-0.02121-0.020918-0.0072-0.0069-0.01448-0.013742-0.02185-0.020508-0.0074-0.00677-0.01482-0.013472-0.02238-0.020098-0.0076-0.00663-0.01522-0.013148-0.02297-0.019629-0.0078-0.00648-0.01561-0.012886-0.02355-0.019219-0.0079-0.00633-0.01595-0.012628-0.02408-0.018809-0.0081-0.00618-0.01636-0.012257-0.02467-0.018281-0.0083-0.00602-0.0167-0.011949-0.0252-0.017812-0.0085-0.00586-0.01711-0.011703-0.02578-0.017402-0.0087-0.0057-0.01746-0.011286-0.02631-0.016816-0.0089-0.00553-0.01775-0.01099-0.02678-0.016348-9e-3 -0.00536-0.01816-0.010639-0.02736-0.01582-0.0092-0.00518-0.01852-0.010234-0.02789-0.015234-0.0094-5e-3 -0.01882-0.00995-0.02836-0.014766-0.0095-0.00482-0.01918-0.00949-0.02889-0.014121-0.0097-0.00463-0.01948-0.00916-0.02935-0.013594-0.0099-0.00443-0.01984-0.00877-0.02988-0.013008-0.01004-0.00424-0.02021-0.00839-0.03041-0.012422-0.0102-0.00404-0.02046-8e-3 -0.03082-0.011836-0.01036-0.00383-0.02082-0.00751-0.03135-0.011133-0.01052-0.00362-0.02114-0.00714-0.03182-0.010547-0.01068-0.00341-0.02139-0.00671-0.03223-0.0099-0.01083-0.00319-0.02177-0.00629-0.03275-0.00926-0.01099-0.00297-0.02203-0.00581-0.03316-0.00855s-0.02235-0.00539-0.03363-0.00791-0.02267-0.00492-0.0341-0.00721c-0.01143-0.00228-0.02288-0.00446-0.03445-0.0065s-0.02326-0.00394-0.03498-0.00574c-0.01171-0.0018-0.02348-0.00348-0.03533-0.00504-0.01186-0.00156-0.02375-0.00303-0.03574-0.00434s-0.02408-0.00246-0.03621-0.00352c-0.01213-0.00105-0.0243-0.00202-0.03656-0.00281-0.05068-0.00329-0.10103-0.00665-0.151-0.010137-0.04996-0.00349-0.09958-0.00705-0.14883-0.010723-0.04925-0.00368-0.09811-0.00744-0.14666-0.011309-0.04855-0.00386-0.09676-0.00785-0.14461-0.011895-0.04785-0.00405-0.09534-0.00819-0.1425-0.012422-0.04716-0.00423-0.09397-0.00854-0.14045-0.012949-0.04648-0.00441-0.0926-0.00889-0.1384-0.013477-0.0458-0.00458-0.09127-0.00925-0.13641-0.014004-0.04513-0.00475-0.08994-0.00961-0.13441-0.014531-0.04447-0.00492-0.08866-0.00991-0.13248-0.015s-0.08731-0.010278-0.13049-0.015527c-0.04318-0.00525-0.08602-0.010588-0.12856-0.015996-0.04254-0.00541-0.08477-0.010842-0.12668-0.016406-0.04191-0.00556-0.08352-0.011217-0.1248-0.016934-0.04129-0.00572-0.08226-0.011536-0.12293-0.017402-0.04067-0.00587-0.08105-0.011801-0.12111-0.017813-0.04006-0.00601-0.07977-0.012068-0.11924-0.018223-0.03946-0.00616-0.07867-0.012396-0.11754-0.018691-0.03887-0.00629-0.07744-0.01267-0.11572-0.019102-0.03829-0.00643-0.07626-0.012947-0.11396-0.019512-0.03771-0.00657-0.07513-0.013168-0.11227-0.019863-0.03714-0.0067-0.07399-0.013451-0.11057-0.020274-0.03658-0.00682-0.07291-0.013737-0.10893-0.020684-0.03602-0.00695-0.07176-0.013909-0.10723-0.020976-0.03547-0.00707-0.07066-0.014201-0.10559-0.021387-0.03493-0.00719-0.06961-0.014439-0.104-0.021738-0.0344-0.0073-0.06855-0.014679-0.10242-0.02209-0.03387-0.00741-0.06743-0.014863-0.10078-0.022383-0.03335-0.00752-0.06647-0.01511-0.09932-0.022734-0.03284-0.00762-0.06545-0.015301-0.09779-0.023027-0.03234-0.00773-0.06443-0.015496-0.09627-0.02332-0.03184-0.00782-0.06345-0.015693-0.0948-0.023613-0.03136-0.00792-0.06246-0.015894-0.09334-0.023906-0.03087-0.00801-0.06147-0.016039-0.09187-0.024141-0.0304-0.0081-0.06059-0.016246-0.09053-0.024434-0.02994-0.00819-0.05964-0.016456-0.08912-0.024726-0.05895-0.016541-0.11698-0.033245-0.17414-0.050098-0.05716-0.016853-0.11349-0.033837-0.16893-0.050976-0.05544-0.01714-0.11-0.034396-0.16377-0.051797-0.05377-0.017401-0.10669-0.034922-0.15885-0.052559-0.05216-0.017637-0.10356-0.035414-0.15416-0.053262-0.05061-0.017848-0.10042-0.035815-0.14953-0.053848-0.04911-0.018033-0.09751-0.036124-0.1452-0.054316-0.04768-0.018193-0.09466-0.036458-0.14098-0.054785-0.04631-0.018327-0.09199-0.0367-0.13699-0.055137-0.045-0.018436-0.08932-0.036968-0.13307-0.055488-0.04375-0.01852-0.08694-0.037027-0.12949-0.055605-0.04256-0.018578-0.08449-0.037229-0.12592-0.05584-0.04143-0.018611-0.08234-0.037221-0.1227-0.05584-0.04035-0.018619-0.08013-0.037239-0.11947-0.05584-0.04496-0.021256-0.08866-0.042026-0.13113-0.062402-0.04247-0.020376-0.0837-0.040317-0.12381-0.059824-0.04011-0.019508-0.07908-0.038595-0.11695-0.057246-0.03787-0.018651-0.07464-0.036862-0.11039-0.054668-0.07151-0.035611-0.13894-0.069593-0.20274-0.10189-0.0638-0.032301-0.12398-0.062966-0.18105-0.092051-0.0781-0.039792-0.15036-0.076587-0.21809-0.11057-0.03386-0.01699-0.06663-0.033286-0.09838-0.048867s-0.06251-0.030445-0.09246-0.044648-0.05907-0.027751-0.08754-0.040606-0.05625-0.025026-0.08355-0.036563c-0.01365-0.00577-0.02718-0.011372-0.04061-0.016816-0.01342-0.00544-0.02673-0.010755-0.03996-0.015879-0.01323-0.00512-0.02641-0.010075-0.03949-0.014883-0.01308-0.00481-0.02606-0.00945-0.03902-0.013945-0.01297-0.00449-0.02589-0.00882-0.03879-0.013008-0.01289-0.00419-0.02575-0.00825-0.03861-0.012129-0.01286-0.00388-0.02575-0.00761-0.03861-0.011191-0.01287-0.00358-0.0257-0.00697-0.03861-0.010254-0.01291-0.00328-0.0259-0.00645-0.03891-0.00943-0.013-0.00299-0.02607-0.0058-0.0392-0.0085s-0.02632-0.00527-0.03961-0.00768-0.0267-0.00467-0.0402-0.0068-0.02709-0.00413-0.04084-0.00598-0.02763-0.00352-0.04166-0.0051c-0.01403-0.00157-0.02818-0.00303-0.04254-0.00434-0.01436-0.0013-0.02887-0.00248-0.04359-0.00352-0.01472-0.00103-0.02964-0.00193-0.04476-0.00269-0.01512-7.698e-4 -0.03049-0.00142-0.04606-0.00193-0.01557-5.094e-4 -0.03135-8.604e-4 -0.0474-0.00111-0.01605-2.528e-4 -0.03235-4.102e-4 -0.04893-4.102e-4z" fill="#475569" fill-opacity=".37255" stroke-linecap="round" stroke-linejoin="round" stroke-miterlimit="5.4" stroke-width="1.1524"/>
 <path d="m11.856 22.583c0.0123-5.86e-4 0.02462-0.0012 0.03691-0.0021 0.01699-0.0012 0.03398-0.0028 0.05092-0.0046 0.01694-0.0019 0.03387-4e-3 0.05074-0.0065s0.03367-0.0053 0.05045-0.0084 0.03349-0.0065 0.05016-0.01025c0.01666-0.0037 0.03327-0.0077 0.04981-0.01207 0.01653-0.0043 0.03296-9e-3 0.04934-0.014s0.03267-0.01024 0.04887-0.01582c0.0162-0.0056 0.03233-0.01143 0.04834-0.01764 0.01601-0.0062 0.03191-0.01275 0.04769-0.01957 0.01579-0.0068 0.03144-0.01394 0.04699-0.02139 0.01555-0.0074 0.03099-0.0152 0.04629-0.02326 0.0153-0.0081 0.03051-0.01645 0.04553-0.02514 0.01502-0.0087 0.02987-0.0177 0.04459-0.02701 0.01472-0.0093 0.02931-0.0189 0.04371-0.02883 0.13658-0.09411 0.28155-0.19363 0.43453-0.29824s0.31398-0.21435 0.48264-0.32877c0.08433-0.05721 0.17058-0.1156 0.25869-0.17514 0.08812-0.05953 0.17808-0.12017 0.26988-0.18193 0.09181-0.06176 0.18543-0.12464 0.28084-0.18856 0.09541-0.06391 0.19264-0.12886 0.29156-0.19482 0.09892-0.06597 0.19954-0.13292 0.30188-0.20086 0.10234-0.06794 0.2064-0.1369 0.31207-0.20672 0.10567-0.06983 0.21295-0.14054 0.32186-0.21217 0.10891-0.07162 0.21941-0.14411 0.33146-0.21744 0.11205-0.07333 0.22567-0.14753 0.34078-0.22248 0.11511-0.07496 0.23173-0.15068 0.3498-0.22717 0.11808-0.07649 0.23758-0.15374 0.35854-0.23168 0.12095-0.07794 0.24336-0.1566 0.36709-0.2359 0.01964-0.01258 0.03917-0.02541 0.05871-0.0385s0.03903-0.02643 0.05848-0.04002c0.01944-0.01359 0.0389-0.02741 0.05824-0.04149 0.01935-0.01409 0.03864-0.02842 0.05789-0.04301s0.03845-0.02945 0.0576-0.04453 0.0382-0.03042 0.05725-0.046 0.03806-0.03139 0.05701-0.04746 0.03787-0.03242 0.05672-0.04898c0.01885-0.01657 0.03762-0.03339 0.05637-0.05045s0.03743-0.03436 0.05607-0.05191 0.03724-0.03534 0.05578-0.05338 0.037-0.03631 0.05543-0.05484 0.03687-0.03729 0.05519-0.05631c0.01833-0.01902 0.03655-0.03833 0.05479-0.05783 0.01822-0.0195 0.03638-0.03925 0.05449-0.05924s0.03619-0.04023 0.0542-0.0607 0.03595-0.04115 0.05385-0.06211 0.03576-0.04219 0.05355-0.06363 0.03552-0.04306 0.0532-0.06498 0.03528-0.0441 0.05285-0.0665 0.0351-0.04503 0.05256-0.06791 0.03486-0.04596 0.05221-0.06932c0.01734-0.02335 0.03464-0.04695 0.05186-0.07078 0.01723-0.02383 0.03439-0.04789 0.0515-0.07219 0.01712-0.0243 0.03415-0.04888 0.05115-0.07365 0.017-0.02478 0.03397-0.04975 0.05086-0.075s0.03368-0.05074 0.05045-0.07646 0.03351-0.05168 0.05016-0.07787 0.03327-0.05262 0.0498-0.07928 0.03299-0.05351 0.0494-0.08063c0.01642-0.02712 0.03275-0.0545 0.04904-0.08209s0.03258-0.05538 0.04875-0.08344c0.01618-0.02805 0.03229-0.05639 0.04834-0.0849 0.01605-0.02852 0.032-0.05721 0.04793-0.08619s0.03183-0.05822 0.04764-0.08766 0.03154-0.0591 0.04723-0.089 0.03131-0.06005 0.04687-0.09041 0.03102-0.06094 0.04647-0.09176c0.01544-0.03081 0.0308-0.06184 0.04611-0.0931 0.01531-0.03127 0.03058-0.06279 0.04576-0.09451s0.0303-0.06368 0.04535-0.09586 0.03007-0.06458 0.045-0.09721 0.02979-0.06546 0.04459-0.09855c0.0148-0.03308 0.02951-0.06637 0.04418-0.0999s0.02923-0.06733 0.04377-0.10131c0.01454-0.03398 0.02901-0.06817 0.04342-0.1026 0.0144-0.03443 0.02874-0.06907 0.04301-0.10394 0.01427-0.03487 0.02852-0.06997 0.04266-0.10529 0.01414-0.03532 0.02818-0.07088 0.04219-0.10664 0.014-0.03576 0.02797-0.07172 0.04184-0.10793 0.01387-0.03621 0.02768-0.07263 0.04143-0.10928 0.01374-0.03665 0.02736-0.07354 0.04096-0.11062 0.0136-0.03709 0.02715-0.07439 0.04061-0.11191 0.01346-0.03753 0.02687-0.07524 0.0402-0.1132 0.01332-0.03796 0.02654-0.07615 0.03973-0.11455 0.01319-0.0384 0.02633-0.07706 0.03937-0.1159 0.01305-0.03884 0.026-0.07786 0.03891-0.11713 0.01291-0.03927 0.02573-0.07877 0.0385-0.11848 0.01276-0.0397 0.02547-0.07963 0.03809-0.11976 0.01262-0.04013 0.0252-0.08049 0.03768-0.12106 0.01248-0.04056 0.02487-0.08135 0.03721-0.12234 0.01234-0.04099 0.02461-0.08215 0.0368-0.12357 0.01219-0.04142 0.02434-0.08307 0.03639-0.12492 0.01205-0.04185 0.02402-0.08394 0.03592-0.12621 0.01163-0.04131 0.02317-0.08275 0.03463-0.12434 0.01146-0.04159 0.02282-0.08329 0.0341-0.12516 0.01128-0.04186 0.02246-0.0839 0.03357-0.12604 0.01111-0.04214 0.02217-0.08439 0.03311-0.1268 0.01094-0.0424 0.02181-0.08495 0.03258-0.12762 0.01077-0.04267 0.02145-0.08545 0.03205-0.12838 0.0106-0.04293 0.02109-0.08596 0.03152-0.12914 0.01043-0.04318 0.02079-0.08647 0.03106-0.1299 0.01026-0.04343 0.02043-0.08699 0.03053-0.13066 0.0101-0.04368 0.02013-0.08751 0.03006-0.13143 0.0099-0.04392 0.01977-0.08797 0.02953-0.13213 0.0098-0.04416 0.01946-0.08844 0.02906-0.13283 0.0096-0.04439 0.0191-0.08886 0.02853-0.13348 0.0094-0.04462 0.0188-0.08939 0.02807-0.13424 0.01854-0.08969 0.03678-0.17984 0.05467-0.27041 0.01789-0.09057 0.03549-0.18152 0.05273-0.27293 0.01724-0.0914 0.03408-0.18324 0.05068-0.27545s0.03296-0.18481 0.04893-0.27779c0.01596-0.09298 0.03154-0.1863 0.04687-0.28002 0.01533-0.09372 0.03035-0.18782 0.04506-0.28225 0.01471-0.09442 0.0291-0.18921 0.04318-0.2843 0.01409-0.09509 0.02784-0.19051 0.04131-0.28623 0.01347-0.09572 0.02669-0.19172 0.03955-0.28805 0.01286-0.09632 0.02542-0.19292 0.03768-0.2898 0.01226-0.09689 0.02426-0.19409 0.03592-0.2915 0.01166-0.09742 0.02298-0.19505 0.03404-0.29297 0.01107-0.09792 0.02186-0.19611 0.03234-0.29449 0.01048-0.098377 0.02063-0.19698 0.03053-0.29578 0.0099-0.098806 0.01951-0.19781 0.02883-0.29701 0.0093-0.099199 0.01838-0.19857 0.02713-0.29812 0.0087-0.099559 0.01719-0.1993 0.02537-0.29918 0.0082-0.099884 0.01606-0.19994 0.02367-0.30012 0.0076-0.10017 0.01497-0.20045 0.02203-0.30088 0.0071-0.10043 0.01382-0.20099 0.02033-0.30164 0.0065-0.10065 0.01273-0.20144 0.01869-0.30229 6e-3 -0.10084 0.01169-0.20176 0.01711-0.30275 0.0054-0.101 0.01058-0.20205 0.01547-0.30316 0.0049-0.10111 0.0095-0.20226 0.01389-0.30346 0.0044-0.1012 0.0084-0.20244 0.01225-0.30369 3.47e-4 -0.00912 5.57e-4 -0.018245 6.44e-4 -0.027363 8.7e-5 -0.00912 5.4e-5 -0.018252-1.17e-4 -0.027363-1.72e-4 -0.00911-4.52e-4 -0.018204-8.79e-4 -0.027305-4.28e-4 -0.0091-9.99e-4 -0.018218-0.0017-0.027305-6.82e-4 -0.00909-0.0015-0.018119-0.0024-0.027187-9.33e-4 -0.00907-2e-3 -0.018143-0.0032-0.027188-0.0012-0.00905-0.0025-0.018111-0.0039-0.027129-0.0014-0.00902-3e-3 -0.018024-0.0047-0.027012-0.0017-0.00899-0.0035-0.017942-0.0054-0.026895-0.0019-0.00895-0.0039-0.017863-0.0061-0.026777-0.0022-0.00891-0.0045-0.017848-0.0069-0.026719-0.0024-0.00887-0.0049-0.017719-0.0076-0.026543-0.0026-0.00882-0.0054-0.017594-0.0083-0.026367-0.0029-0.00877-0.0059-0.017532-9e-3 -0.02625-0.0031-0.00872-0.0063-0.017415-0.0097-0.026074-0.0033-0.00866-0.0068-0.017303-0.01037-0.025898-0.0036-0.0086-0.0073-0.017135-0.01107-0.025664-0.0038-0.00853-0.0078-0.017031-0.01178-0.025488-4e-3 -0.00846-0.0082-0.016872-0.01242-0.025254-0.0043-0.00838-0.0086-0.016718-0.01307-0.02502-0.0045-0.0083-0.0091-0.016566-0.01377-0.024785-0.0047-0.00822-0.0094-0.016419-0.01435-0.024551-0.0049-0.00813-0.0099-0.016218-0.01506-0.024258-0.0051-0.00804-0.01036-0.01602-0.0157-0.023965-0.0053-0.00794-0.01079-0.015827-0.01635-0.023672-0.0056-0.00784-0.01123-0.015638-0.01699-0.023379-0.0058-0.00774-0.01166-0.015453-0.01764-0.023086-6e-3 -0.00763-0.01205-0.015213-0.01822-0.022734-0.0062-0.00752-0.01243-0.014977-0.01881-0.022383-0.0064-0.00741-0.01287-0.014746-0.01945-0.022031-0.0066-0.00729-0.01326-0.014518-0.02004-0.02168-0.0068-0.00716-0.0137-0.014237-0.02068-0.021269-7e-3 -0.00703-0.01403-0.014016-0.02121-0.020918-0.0072-0.0069-0.01449-0.013742-0.02186-0.020508-0.0074-0.00677-0.01482-0.013472-0.02238-0.020098-0.0076-0.00663-0.01522-0.013148-0.02297-0.019629-0.0078-0.00648-0.01562-0.012886-0.02356-0.019219-0.0079-0.00633-0.01595-0.012628-0.02408-0.018809-0.0081-0.00618-0.01636-0.012257-0.02467-0.018281-0.0083-0.00602-0.01669-0.01195-0.0252-0.017813-0.0085-0.00586-0.01711-0.011703-0.02578-0.017402-0.0087-0.0057-0.01746-0.011286-0.02631-0.016816-0.0089-0.00553-0.01775-0.01099-0.02678-0.016348-9e-3 -0.00536-0.01816-0.010639-0.02736-0.01582-0.0092-0.00518-0.01852-0.010234-0.02789-0.015234-0.0094-5e-3 -0.01882-0.00995-0.02836-0.014766-0.0095-0.00482-0.01918-0.00949-0.02889-0.014121-0.0097-0.00463-0.01948-0.00916-0.02935-0.013594-0.0099-0.00443-0.01984-0.00877-0.02988-0.013008-0.01004-0.00424-0.02021-0.00839-0.03041-0.012422-0.0102-0.00404-0.02046-8e-3 -0.03082-0.011836-0.01036-0.00383-0.02082-0.00751-0.03135-0.011133-0.01052-0.00362-0.02114-0.00714-0.03182-0.010547-0.01068-0.00341-0.02139-0.00671-0.03223-0.0099-0.01083-0.00319-0.02177-0.00629-0.03275-0.00926-0.01099-0.00297-0.02203-0.00581-0.03316-0.00855s-0.02235-0.00539-0.03363-0.00791-0.02267-0.00492-0.0341-0.00721c-0.01143-0.00228-0.02288-0.00446-0.03445-0.0065s-0.02326-0.00394-0.03498-0.00574c-0.01171-0.0018-0.02348-0.00348-0.03533-0.00504-0.01186-0.00156-0.02375-0.00303-0.03574-0.00434s-0.02408-0.00246-0.03621-0.00352c-0.01213-0.00105-0.0243-0.00202-0.03656-0.00281-0.05068-0.00329-0.10103-0.00665-0.151-0.010137-0.04996-0.00349-0.09958-0.00705-0.14883-0.010723-0.04925-0.00368-0.09811-0.00744-0.14666-0.011309-0.04855-0.00386-0.09676-0.00785-0.14461-0.011895-0.04785-0.00405-0.09534-0.00819-0.1425-0.012422-0.04716-0.00423-0.09397-0.00854-0.14045-0.012949-0.04648-0.00441-0.0926-0.00889-0.1384-0.013477-0.0458-0.00458-0.09127-0.00925-0.13641-0.014004-0.04513-0.00475-0.08994-0.00961-0.13441-0.014531-0.04447-0.00492-0.08866-0.00991-0.13248-0.015-0.04382-0.00509-0.08731-0.010278-0.13049-0.015527-0.04318-0.00525-0.08602-0.010588-0.12856-0.015996-0.04254-0.00541-0.08477-0.010842-0.12668-0.016406-0.04191-0.00556-0.08352-0.011217-0.1248-0.016934-0.04129-0.00572-0.08226-0.011536-0.12293-0.017402-0.04067-0.00587-0.08105-0.011801-0.12111-0.017812-0.04006-0.00601-0.07977-0.012068-0.11924-0.018223-0.03946-0.00616-0.07867-0.012396-0.11754-0.018691-0.03887-0.00629-0.07744-0.01267-0.11572-0.019102-0.03829-0.00643-0.07626-0.012947-0.11396-0.019512-0.03771-0.00657-0.07513-0.013168-0.11227-0.019863-0.03714-0.0067-0.07399-0.01345-0.11057-0.020273-0.03658-0.00682-0.07291-0.013737-0.10893-0.020684-0.03602-0.00695-0.07176-0.01391-0.10723-0.020977-0.03547-0.00707-0.07066-0.014201-0.10559-0.021387-0.03493-0.00719-0.06961-0.014439-0.104-0.021738-0.0344-0.0073-0.06855-0.014679-0.10242-0.02209-0.03387-0.00741-0.06743-0.014863-0.10078-0.022383-0.03335-0.00752-0.06647-0.01511-0.09932-0.022734-0.03284-0.00762-0.06545-0.015301-0.09779-0.023027-0.03234-0.00773-0.06443-0.015496-0.09627-0.02332-0.03184-0.00782-0.06346-0.015693-0.09481-0.023613-0.03136-0.00792-0.06246-0.015894-0.09334-0.023906-0.03087-0.00801-0.06147-0.016039-0.09187-0.024141-0.0304-0.0081-0.06059-0.016246-0.09053-0.024434-0.02994-0.00819-0.05964-0.016457-0.08912-0.024727-0.05895-0.016541-0.11698-0.033245-0.17414-0.050098-0.05716-0.016853-0.11349-0.033838-0.16893-0.050977-0.05544-0.01714-0.11-0.034396-0.16377-0.051797-0.05377-0.017401-0.10669-0.034922-0.15885-0.052559-0.05216-0.017637-0.10356-0.035414-0.15416-0.053262-0.05061-0.017848-0.10042-0.035815-0.14953-0.053848-0.04911-0.018033-0.09751-0.036125-0.1452-0.054316-0.04768-0.018193-0.09466-0.036458-0.14098-0.054785-0.04631-0.018327-0.09199-0.0367-0.13699-0.055137-0.045-0.018436-0.08932-0.036968-0.13307-0.055488-0.04375-0.01852-0.08694-0.037028-0.12949-0.055605-0.04256-0.018578-0.08449-0.037229-0.12592-0.05584-0.04143-0.018611-0.08234-0.037221-0.1227-0.05584-0.04035-0.018619-0.08013-0.037239-0.11947-0.05584-0.04496-0.021256-0.08866-0.042026-0.13113-0.062402-0.04247-0.020376-0.0837-0.040317-0.12381-0.059824-0.04011-0.019508-0.07908-0.038595-0.11695-0.057246-0.03787-0.018651-0.07464-0.036862-0.11039-0.054668-0.07151-0.035611-0.13894-0.069593-0.20273-0.10189-0.0638-0.032301-0.12398-0.062966-0.18106-0.092051-0.0781-0.039792-0.15036-0.076587-0.21809-0.11057-0.03386-0.01699-0.06663-0.033286-0.09838-0.048867s-0.06251-0.030445-0.09246-0.044648-0.05907-0.02775-0.08754-0.040605-0.05625-0.025026-0.08355-0.036563c-0.01365-0.00577-0.02718-0.011372-0.04061-0.016816-0.01342-0.00544-0.02673-0.010755-0.03996-0.015879-0.01323-0.00512-0.02641-0.010075-0.03949-0.014883-0.01308-0.00481-0.026-0.00945-0.03896-0.013945-0.01297-0.00449-0.02589-0.00882-0.03879-0.013008-0.01289-0.00419-0.02575-0.00825-0.03861-0.012129-0.01286-0.00388-0.02575-0.00761-0.03861-0.011191-0.01287-0.00358-0.0257-0.00697-0.03861-0.010254-0.01291-0.00328-0.0259-0.00645-0.03891-0.00943-0.013-0.00299-0.02607-0.0058-0.0392-0.0085s-0.02632-0.00527-0.03961-0.00768-0.0267-0.00467-0.0402-0.0068-0.02709-0.00413-0.04084-0.00598-0.02763-0.00352-0.04166-0.0051c-0.01403-0.00157-0.02824-0.00303-0.0426-0.00434-0.01436-0.0013-0.02881-0.00248-0.04354-0.00352-0.01472-0.00103-0.02965-0.00194-0.04476-0.0027-0.01512-7.698e-4 -0.03049-0.00142-0.04605-0.00193-0.01022-3.344e-4 -0.0207-4.892e-4 -0.03111-7.032e-4z" fill-opacity=".24903" stroke-linecap="round" stroke-linejoin="round" stroke-miterlimit="5.4" stroke-width="1.1524"/>
 <path d="m11.957 8.5447c-1.8863 0-3.4155 1.4497-3.4155 3.2379 0 1.7883 1.5292 3.2379 3.4155 3.2379 0.26946 0 0.48792 0.2071 0.48792 0.46256s-0.21846 0.46256-0.48792 0.46256c-2.4253 0-4.3913-1.8639-4.3913-4.163 0-2.2992 1.9661-4.163 4.3913-4.163 2.4252 0 4.3913 1.8639 4.3913 4.163 0 0.49975-0.0931 0.97995-0.26419 1.4252-0.08646 0.22499-0.23316 0.40853-0.39587 0.55088l-0.05243 0.04583c-0.52676 0.46065-1.3177 0.51973-1.914 0.14284-0.24045-0.15197-0.42742-0.36178-0.54595-0.60281-0.34064 0.2393-0.76233 0.38084-1.2188 0.38084-1.1318 0-2.0493-0.8698-2.0493-1.9428 0-1.073 0.91749-1.9428 2.0493-1.9428s2.0493 0.8698 2.0493 1.9428v0.93998c0 0.18286 0.09635 0.35358 0.25684 0.45497 0.22152 0.14 0.51531 0.11811 0.711-0.05304l0.05244-0.04582c0.07234-0.06328 0.11762-0.12773 0.14065-0.18761 0.13265-0.34519 0.20525-0.71826 0.20525-1.1085 0-1.7883-1.5292-3.2379-3.4155-3.2379zm0 2.2203c0.59286 0 1.0734 0.45559 1.0734 1.0176s-0.48057 1.0176-1.0734 1.0176-1.0734-0.45559-1.0734-1.0176 0.48057-1.0176 1.0734-1.0176z" clip-rule="evenodd" fill-opacity=".47059" fill-rule="evenodd" stroke-width=".63343"/>
</svg>
