<svg width="210mm" height="60mm" version="1.1" viewBox="0 0 210 60" xmlns="http://www.w3.org/2000/svg">
 <g transform="scale(.96133 1.0402)" stroke="#000" stroke-linecap="round" stroke-linejoin="round" stroke-miterlimit="5.4" stroke-width="0" aria-label="Games">
  <g fill="#ffffffc3">
   <path d="m26.833 26.178h15.219q4.9156 6.0953 4.9156 12.859 0 7.8649-5.7807 13.213-5.7414 5.3481-14.157 5.3481-10.932 0-18.561-8.2975-7.629-8.2975-7.629-20.213 0-11.955 7.7469-19.898 7.7863-7.9436 19.426-7.9436 3.9718 0 8.8087 1.6123v15.966q-3.7752-1.7696-6.8818-1.7696-5.6234 0-9.2019 3.4999-3.5392 3.4999-3.5392 9.084 0 5.7021 3.3033 9.0446t8.9267 3.3426q3.5785 0 3.5785-2.0842 0-1.573-2.3595-1.573h-3.8145z"/>
   <path d="m71.461 41.554v15.219q-1.8089 0.3146-3.3033 0.3146-8.848 0-14.747-5.82-5.8987-5.82-5.8987-14.589 0-8.5334 5.938-14.471 5.9773-5.938 14.511-5.938 9.5165 0 14.983 5.5841 5.5054 5.5448 5.5054 15.179v19.23h-14.707v-18.168q0-3.1066-1.5337-4.9549-1.4943-1.8483-4.0504-1.8483-2.3201 0-4.0111 1.691t-1.691 4.0111q0 2.4381 1.5337 4.0111 1.5337 1.573 3.8931 1.573 1.9269 0 3.5785-1.0224z"/>
   <path d="m144.79 56.261h-14.707v-21.157q0-2.4381-0.51122-3.3819-0.51122-0.94379-1.8482-0.94379-2.4774 0-2.4774 4.365v21.117h-14.707v-21.157q0-2.4381-0.55054-3.3819-0.51122-0.94379-1.8482-0.94379-2.4381 0-2.4381 4.365v21.117h-14.707v-24.145q0-6.6065 4.4437-11.207 4.4437-4.6403 10.775-4.6403 6.5279 0 11.719 5.5054 5.7807-5.5054 11.561-5.5054 7.3537 0 11.797 5.3481 3.4999 4.1684 3.4999 12.151z"/>
   <path d="m187.92 39.037h-22.297q-0.51122-1.691-0.51122-3.1066 0-1.9662 0.70784-3.8538h7.4717q-0.78649-4.365-4.9156-4.365-2.7527 0-4.483 2.3595-1.7303 2.3201-1.7303 5.9773 0 3.8145 1.6516 6.1739 1.691 2.3595 4.4043 2.3595 2.2022 0 4.247-2.2022l8.3761 10.067q-5.8594 4.601-13.016 4.601-8.73 0-14.668-5.8594-5.938-5.8594-5.938-14.511 0-8.6121 5.9773-14.55 6.0166-5.938 14.747-5.938 8.5334 0 14.314 5.82 5.82 5.7807 5.82 14.275 0 0.86514-0.1573 2.7527z"/>
   <path d="m217.92 17.605v15.494q-3.1066 0-4.2864 1.1797-1.1404 1.1404-1.455 4.5616-1.0224 11.365-8.8087 16.044-4.1291 2.4381-11.719 2.4381h-2.0449v-15.573h0.66851q3.5392 0 5.0335-1.455 1.5337-1.4943 1.7696-5.1908 0.3146-6.0167 1.1011-8.4548 0.82581-2.4381 3.3033-4.8369 4.3257-4.2077 11.994-4.2077z"/>
  </g>
 </g>
</svg>
