<svg width="210mm" height="100mm" version="1.1" viewBox="0 0 210 100" xmlns="http://www.w3.org/2000/svg">
 <g transform="scale(1.0859 .92089)" stroke="#000" stroke-linecap="round" stroke-linejoin="round" stroke-miterlimit="5.4" stroke-width="0" aria-label="Live">
  <g transform="matrix(1 0 0 1.1374 3.0847e-8 -4.8231)" fill="#ffffffe3">
   <path d="m0.74945 10.202h25.649v51.236q0 6.0017 1.8953 8.0233 1.9584 1.9584 7.6443 1.9584h1.3267v25.018h-6.823q-14.025 0-21.859-8.1497-7.8338-8.2129-7.8338-22.743z"/>
   <path d="m67.779 33.451v62.986h-23.628v-62.986zm-11.751-28.113q4.8014 0 8.276 3.4115 3.5378 3.3483 3.5378 7.9601 0 4.9277-3.3483 8.0865-3.2851 3.1588-8.4656 3.1588t-8.5287-3.1588q-3.2851-3.1588-3.2851-8.0865 0-4.6118 3.4747-7.9601 3.5378-3.4115 8.3392-3.4115z"/>
   <path d="m129 33.451-29.44 65.45-29.061-65.45h22.554l6.6966 16.994 7.3284-16.994z"/>
   <path d="m193.44 68.766h-35.821q-0.82128-2.7166-0.82128-4.9909 0-3.1588 1.1372-6.1912h12.003q-1.2635-7.0125-7.897-7.0125-4.4223 0-7.202 3.7905-2.7797 3.7274-2.7797 9.6027 0 6.1281 2.6534 9.9186 2.7166 3.7905 7.0757 3.7905 3.5378 0 6.823-3.5378l13.456 16.173q-9.4132 7.3916-20.911 7.3916-14.025 0-23.565-9.4132-9.5395-9.4132-9.5395-23.312 0-13.835 9.6027-23.375 9.6659-9.5395 23.691-9.5395 13.709 0 22.996 9.35 9.35 9.2868 9.35 22.933 0 1.3899-0.25271 4.4223z"/>
  </g>
 </g>
</svg>
