<svg width="420mm" height="297mm" version="1.1" viewBox="0 90 210 297" xmlns="http://www.w3.org/2000/svg" >
 <g transform="matrix(3.7806 0 0 4.2794 -110.06 -584.12)" fill="#ffffff" stroke-width=".26458" style="inline-size:129.949;white-space:pre" aria-label="Oddsbet">
  <path d="m39.445 164.95-0.44786 0.73725q-2.2186 0.26182-3.8103 0.94395-1.6192 0.68902-2.1497 1.4883-0.53744 0.79237-0.53744 1.9637 0 2.2462 1.6674 3.6311 1.6674 1.3849 4.017 1.3849 2.3151 0 3.5416-1.633 1.2333-1.6399 1.2333-3.0248 0-0.31005-0.15158-0.9784-1.7708-0.79926-2.1704-3.5278 2.198-1.6605 3.2935-1.7846 0.85438 0.69591 1.3229 1.8741 0.47542 1.1851 0.47542 2.2255 0 2.2669-1.7294 4.389-1.7157 2.1084-4.079 3.2728-2.3358 1.1644-4.3133 1.1644-2.26 0-3.9894-1.3505-1.7363-1.3436-1.7363-3.7896 0-1.5916 0.59945-2.7561 0.58567-1.1576 1.8879-2.1084 0.65457-0.47542 1.4332-0.85438t1.6812-0.66835q1.819-0.57877 3.9619-0.59944z"/>
  <path d="m48.388 168.79 0.0689 2.8939q0.03445-0.0345 0.06201-0.062 0.03445-0.0344 0.05512-0.0551 0.04823-0.0827 0.13091-0.21359 0.08957-0.1378 0.15847-0.25494l1.0611-1.8672q-0.65457-0.30317-1.5365-0.44097zm3.9343 4.458-2.4185 0.44097q0.0069-0.22048 0.0069-0.51676 0-1.1024-0.17914-2.1911-0.23427 0.44097-0.95085 1.2402-0.76481 0.85439-1.13 1.3298-0.7028-0.2136-1.1644-0.4203-0.17914-1.0611-0.17914-2.3427 0-0.78548 0.22738-1.3298 0.23427-0.55122 0.79237-1.1507 0.5581-0.59945 1.2058-1.0266 0.44786 0.0207 1.3436 0.26183 0.05512-1.4745 0.05512-2.7699 1.9982-0.37207 2.4185-0.46853-0.24805 2.7767-0.24805 6.022 0 0.79926 0.05512 1.5572 0.06201 0.75792 0.16536 1.3643z"/>
  <path d="m55.113 168.79 0.0689 2.8939q0.03445-0.0345 0.06201-0.062 0.03445-0.0344 0.05512-0.0551 0.04823-0.0827 0.13091-0.21359 0.08957-0.1378 0.15848-0.25494l1.0611-1.8672q-0.65457-0.30317-1.5365-0.44097zm3.9343 4.458-2.4185 0.44097q0.0069-0.22048 0.0069-0.51676 0-1.1024-0.17914-2.1911-0.23427 0.44097-0.95085 1.2402-0.76481 0.85439-1.13 1.3298-0.7028-0.2136-1.1644-0.4203-0.17914-1.0611-0.17914-2.3427 0-0.78548 0.22738-1.3298 0.23427-0.55122 0.79237-1.1507 0.5581-0.59945 1.2058-1.0266 0.44786 0.0207 1.3436 0.26183 0.05512-1.4745 0.05512-2.7699 1.9982-0.37207 2.4185-0.46853-0.24805 2.7767-0.24805 6.022 0 0.79926 0.05512 1.5572 0.06201 0.75792 0.16536 1.3643z"/>
  <path d="m62.024 167.4q0.04134 0 1.1851 0.0827 1.2265 0.0758 2.3909 0.0758-0.0069 0.0276-0.15158 0.51676-0.24116 0.79926-0.24805 1.1851-0.80615-0.31695-3.135-0.51676 0.33073 0.9784 2.1635 0.9784 0.96463 0 1.3229 0.0827 0.34451 0.0827 0.54432 0.34451 0.19292 0.25493 0.19292 0.73725 0 0.51676-0.22049 1.0128-0.23427 0.4961-0.54432 0.79927-0.31695 0.31005-1.1162 0.5581-0.79237 0.24805-1.6674 0.24805-1.5158 0-2.5287-0.62012 0.12402-0.41341 0.37896-1.0129 1.0749 0.46854 2.4322 0.46854 0.71658 0 1.3229-0.39964-0.4203-0.29627-0.9164-0.29627-0.10335 0-0.24805 7e-3 -0.34451 0.0138-0.39274 0.0138-1.3574 0-2.0671-0.40652-0.70969-0.39963-0.70969-1.3918 0-0.78548 0.42719-1.316 0.4203-0.52365 1.5847-1.1507z"/>
  <path d="m70.092 168.79q-0.31695 0.62012-0.53743 0.84749 0 0.25494-0.01378 0.7028-0.0069 0.44097-0.01378 0.82682 0.51676 0.22738 1.2471 0.44787 0.04134-0.26183 0.04134-0.48921 0-1.378-0.72347-2.3358zm-2.8456-1.8535v-2.0326l0.9095-0.22738q0.81993-0.19982 1.3229-0.37207 0.0069 0.13091 0.0069 0.21359v1.254q0 1.1507 0.22049 2.6114 0.40652-0.38585 0.75792-0.90262 1.006 0.0896 1.5503 0.39275 0.53744 0.31005 0.72347 0.8406 0.17914 0.53743 0.17914 1.4676 0 0.98529-0.19982 1.5434-0.19982 0.53743-0.72347 1.0473-0.50987 0.50298-1.0129 0.68902l-1.5227-0.88195q-0.17914 0.50988-0.27561 0.66835l-2.2393 0.60634q0.29628-1.2334 0.33073-1.4814 0.02756-0.2136 0.02756-2.7354 0-0.4203-0.02756-1.2196-0.02756-0.87505-0.02756-1.4814z"/>
  <path d="m76.011 168.81-0.17914 1.6812q0.59945 0 1.2885-0.0413 0.01378-0.45475 0.01378-0.43408 0-0.58566-0.31006-0.88194-0.31695-0.30317-0.81304-0.32384zm-2.0808-0.0689 1.5503-1.316 1.8535 0.13781q0.89572 0.0758 1.2678 0.44786 0.38585 0.38585 0.38585 0.8406 0 0.19982-0.05512 0.51677-0.07579 0.37207-0.15847 1.1093-0.94396 0.4892-1.4332 0.57188-0.49609 0.0827-0.95085 0.0827-0.17226 0-0.42719-0.0345 0.67524 0.8406 1.316 0.8406 0.75792 0 1.3643-0.57188h0.05512q-0.68902 2.1497-2.5494 2.1497-0.96463 0-1.3987-0.26872-0.43408-0.26872-0.66146-0.77859-0.23427-0.49609-0.23427-1.881l0.03445-1.1782z"/>
  <path d="m80.262 167.35-0.0069-0.5581q0.08268-0.0138 0.65457-0.0689 0.97152-0.10335 1.4469-0.17225 0.0069 0.11024 0.0069 0.23427 0 0.22048-0.04823 0.73036 0.22049 0.0207 0.87505 0.0207 0.44786 0 0.59945-0.0207-0.18604 1.1162-0.24116 1.316-0.46164 0.0689-1.2747 0.10335-0.04823 1.0198-0.04823 1.3918 0 0.59945 0.2825 0.95774 0.27561 0.3514 0.95774 0.55121l-1.192 1.8052q-2.2531-0.62012-2.2531-2.3289 0-0.2825 0.09646-1.0886 0.09646-0.83371 0.11024-1.1231-0.31695 7e-3 -0.7028 0.0758l0.73036-1.254v-0.13781z"/>
 </g>
</svg>