<svg width="270mm" height="120mm" version="1.1" viewBox="-20 90 210 120" xmlns="http://www.w3.org/2000/svg" xmlns:xlink="http://www.w3.org/1999/xlink">
 <defs>
  <linearGradient id="linearGradient28854">
   <stop offset="0"/>
   <stop stop-opacity="0" offset="1"/>
  </linearGradient>
  <linearGradient id="linearGradient980" x1="29.881" x2="83.79" y1="170.61" y2="170.61" gradientUnits="userSpaceOnUse">
   <stop stop-color="#06b6d4" offset="0"/>
   <stop stop-color="#1a1fa4" offset="1"/>
  </linearGradient>
  <linearGradient id="linearGradient28856" x1="-26.163" x2="199.95" y1="295.84" y2="295.84" gradientUnits="userSpaceOnUse" xlink:href="#linearGradient28854"/>
  <linearGradient id="linearGradient29144" x1="6.6577" x2="199.95" y1="295.31" y2="293.15" gradientUnits="userSpaceOnUse" xlink:href="#linearGradient980"/>
 </defs>
 <g fill="url(#linearGradient28856)">
  <g fill="url(#linearGradient28856)">
   <g fill="url(#linearGradient28856)">
    <g fill="url(#linearGradient28856)">
     <g transform="matrix(1.1808 0 0 1.2025 -17.866 -207.05)" fill="url(#linearGradient29144)" stroke="#000" stroke-linecap="round" stroke-linejoin="round" stroke-miterlimit="5.4" stroke-width="0">
      <g transform="scale(1.0277 .973)" aria-label="ddsbet">
       <path d="m37.654 283.57h11.007v24.457q0 6.7397-3.5317 10.978-2.0307 2.4428-5.1798 3.8849-3.1197 1.4421-6.4159 1.4421-6.5631 0-11.066-4.4146-4.5029-4.4146-4.5029-10.831 0-6.2099 4.4735-10.742t10.595-4.5324q0.97122 0 2.9431 0.17659v12.126q-1.3538-1.0595-2.7076-1.0595-1.707 0-2.9431 1.2655-1.2067 1.2361-1.2067 3.002 0 1.707 1.2655 2.9431 1.2655 1.2067 3.0314 1.2067 4.2381 0 4.2381-5.8568z"/>
       <path d="m72.53 283.57h11.007v24.457q0 6.7397-3.5317 10.978-2.0307 2.4428-5.1798 3.8849-3.1197 1.4421-6.4159 1.4421-6.5631 0-11.066-4.4146-4.5029-4.4146-4.5029-10.831 0-6.2099 4.4735-10.742 4.4735-4.5324 10.595-4.5324 0.97122 0 2.9431 0.17659v12.126q-1.3538-1.0595-2.7076-1.0595-1.707 0-2.9431 1.2655-1.2067 1.2361-1.2067 3.002 0 1.707 1.2655 2.9431 1.2655 1.2067 3.0314 1.2067 4.2381 0 4.2381-5.8568z"/>
       <path d="m107.73 294.81v11.596q-2.325 0-3.208 0.88293-0.8535 0.85349-1.089 3.414-0.7652 8.5055-6.5925 12.008-3.0902 1.8247-8.7704 1.8247h-1.5304v-11.655h0.50032q2.6488 0 3.7672-1.0889 1.1478-1.1184 1.3244-3.8849 0.23545-4.5029 0.82407-6.3276 0.61805-1.8247 2.4722-3.62 3.2374-3.1491 8.9764-3.1491z"/>
       <path d="m121.68 283.57v24.045q0 5.8568 4.2086 5.8568 1.7953 0 3.0314-1.2067 1.2655-1.2361 1.2655-2.9725 0-1.7953-1.1772-3.002-1.1772-1.2361-2.8842-1.2361-1.2067 0-2.7665 1.0595v-12.126q1.9424-0.17659 2.9431-0.17659 6.2099 0 10.625 4.4735 4.4441 4.4735 4.4441 10.772 0 6.4454-4.5029 10.86-4.5029 4.4146-11.066 4.4146-3.2963 0-6.4454-1.4421-3.1197-1.4421-5.1504-3.8849-3.5317-4.238-3.5317-10.978v-24.457z"/>
       <path d="m175.04 310.85h-16.687q-0.3826-1.2655-0.3826-2.325 0-1.4715 0.52976-2.8842h5.5919q-0.58862-3.2668-3.6789-3.2668-2.0602 0-3.3551 1.7659-1.295 1.7364-1.295 4.4735 0 2.8548 1.2361 4.6206 1.2655 1.7658 3.2963 1.7658 1.6481 0 3.1785-1.6481l6.2688 7.5343q-4.3852 3.4434-9.7416 3.4434-6.5337 0-10.978-4.3852-4.4441-4.3852-4.4441-10.86 0-6.4454 4.4735-10.889 4.5029-4.4441 11.037-4.4441 6.3865 0 10.713 4.3558 4.3558 4.3264 4.3558 10.683 0 0.64748-0.11772 2.0602z"/>
       <path d="m189.4 283.57v11.243h4.9444v11.625h-4.9444q0 3.5023 1.089 4.8267 1.1184 1.3244 4.0615 1.3244v11.566q-0.85349 0.0294-1.2655 0.0294-3.7377 0-7.0634-1.7364-3.2963-1.7364-5.2976-4.7089-2.5311-3.7966-2.5311-10.065v-24.104z"/>
      </g>
      <g transform="matrix(0 -.97475 1.0259 0 0 0)" aria-label="d">
       <path d="m-304.42-25.502h10.894v24.207q0 6.6706-3.4955 10.865-2.0099 2.4177-5.1268 3.8451-3.0877 1.4273-6.3502 1.4273-6.4959 0-10.953-4.3694-4.4568-4.3694-4.4568-10.72 0-6.1463 4.4277-10.632 4.4277-4.4859 10.487-4.4859 0.96128 0 2.913 0.17478v12.001q-1.34-1.0487-2.6799-1.0487-1.6895 0-2.9129 1.2526-1.1943 1.2234-1.1943 2.9712 0 1.6895 1.2526 2.9129 1.2526 1.1943 3.0003 1.1943 4.1946 0 4.1946-5.7968z" fill="url(#linearGradient29144)"/>
      </g>
     </g>
    </g>
   </g>
  </g>
 </g>
</svg>
