<svg width="210mm" height="75mm" version="1.1" viewBox="0 0 210 75" xmlns="http://www.w3.org/2000/svg">
 <g transform="scale(.99259 1.0075)" stroke="#000" stroke-linecap="round" stroke-linejoin="round" stroke-miterlimit="5.4" stroke-width="0" aria-label="Sports">
  <g fill="#0ff">
   <path d="m30.175 2.4239v15.795q-1.7866-0.60905-2.761-0.60905-1.8678 0-3.2077 1.3805-1.3399 1.3805-1.3399 3.3295 0 1.6647 1.4617 4.2228l1.2587 2.1926q3.4107 5.9281 3.4107 11.45 0 8.0801-5.7657 13.683-5.7251 5.6033-14.008 5.6033-3.9791 0-7.8771-1.8272v-16.038q2.355 1.5023 4.1822 1.5023 2.152 0 3.5731-1.2181 1.4617-1.2587 1.4617-3.1265 0-1.2181-2.3144-5.3191-3.6949-6.4966-3.6949-12.993 0-7.8365 5.5627-13.48 5.6033-5.6845 13.359-5.6845 3.4107 0 6.6996 1.1369z"/>
   <path d="m51.695 73.074h-15.186v-33.782q0-9.2982 4.8724-15.145 2.8016-3.3701 7.1056-5.3597 4.3446-1.9896 8.8922-1.9896 9.0546 0 15.267 6.0905 6.2123 6.0905 6.2123 14.942 0 8.608-6.1717 14.861-6.1717 6.2529-14.617 6.2529-1.3805 0-4.0604-0.28422v-16.729q1.8678 1.5023 3.7355 1.5023 2.355 0 4.0198-1.746 1.7054-1.746 1.7054-4.1416t-1.746-4.0604q-1.746-1.7054-4.1822-1.7054-5.8469 0-5.8469 8.0801z"/>
   <path d="m104.72 16.757q8.608 0 14.739 6.2123 6.1717 6.1717 6.1717 14.82 0 8.7704-6.2529 14.942-6.2124 6.1717-15.023 6.1717-8.811 0-15.064-6.1717-6.2529-6.2123-6.2529-14.942 0-8.8922 6.2529-14.942 6.2529-6.0905 15.429-6.0905zm-0.40604 14.983q-2.4362 0-4.1416 1.7866-1.7053 1.746-1.7053 4.304 0 2.5174 1.7053 4.304 1.746 1.7866 4.1416 1.7866 2.4362 0 4.1416-1.7866 1.746-1.7866 1.746-4.304 0-2.558-1.7054-4.304-1.7054-1.7866-4.1822-1.7866z"/>
   <path d="m154.18 17.204v16.241q-1.5835-0.89328-2.8828-0.89328-4.1416 0-4.1416 6.3342v19.205h-15.186v-22.129q0-8.7704 4.7912-13.968 4.7912-5.2379 12.79-5.2379 1.7866 0 4.6288 0.44664z"/>
   <path d="m172.17 2.6675v15.511h6.8214v16.038h-6.8214q0 4.8318 1.5023 6.659 1.5429 1.8272 5.6033 1.8272v15.957q-1.1775 0.0406-1.746 0.0406-5.1566 0-9.7448-2.3956-4.5476-2.3956-7.3086-6.4966-3.4919-5.2379-3.4919-13.886v-33.254z"/>
   <path d="m211.14 18.178v15.998q-3.2077 0-4.4258 1.2181-1.1775 1.1775-1.5023 4.71-1.0557 11.734-9.0952 16.566-4.2634 2.5174-12.1 2.5174h-2.1114v-16.079h0.69026q3.6543 0 5.1973-1.5023 1.5835-1.5429 1.8272-5.3597 0.32483-6.2123 1.1369-8.7298 0.85267-2.5174 3.4107-4.9942 4.4664-4.3446 12.384-4.3446z"/>
  </g>
 </g>
</svg>
