<?xml version="1.0" encoding="UTF-8"?>
<svg width="210mm" height="297mm" version="1.1" viewBox="0 0 210 297" xmlns="http://www.w3.org/2000/svg" xmlns:xlink="http://www.w3.org/1999/xlink">
 <defs>
  <linearGradient id="logoa" x1="74.399" x2="130.64" y1="162.52" y2="185.2" gradientTransform="matrix(2.5267 0 0 2.5267 -149.09 -292.43)" gradientUnits="userSpaceOnUse">
   <stop stop-color="#2406e6" offset="0"/>
   <stop stop-color="#f206e5" offset="1"/>
  </linearGradient>
 </defs>
  <g transform="scale(.95455 1.0476)" fill="url(#logoa)" stroke-width=".66851" aria-label="vs">
   <path d="m69.673 167.02q0.08705-5.7451-6.8767-24.721-14.014-37.517-14.014-53.446 0-14.276 11.229-14.276 10.968 0 10.968 13.057 0 8.3565 0.34819 11.925 0.43523 3.4819 2.6984 12.796 2.3503 9.2269 4.6135 15.407 1.3057 3.743 3.1337 9.7492 1.0446 3.743 1.828 5.2228 0.52228-0.78342 3.6559-6.7896 1.828-3.656 12.361-20.717 10.533-17.148 18.454-27.333 8.0083-10.184 11.925-12.448 3.9171-2.2632 8.2694-2.2632 4.5264 0 7.399 2.9596 2.9596 2.9596 2.9596 7.2248 0 5.0487-7.3119 9.9233-7.1378 4.8746-19.498 22.284-12.274 17.409-26.462 43.784-8.0083 15.059-14.363 15.059-5.4839 0-11.316-7.3989z" style="font-variant-caps:normal;font-variant-east-asian:normal;font-variant-ligatures:normal;font-variant-numeric:normal"/>
   <path d="m165.56 179.48q-0.34819-4.7005-14.972-11.49-17.932-8.6176-22.893-14.798-4.9616-6.2673-4.9616-13.579 0-15.407 17.235-26.897 17.322-11.577 32.294-11.577 14.711 0 14.711 12.796 0 3.3948-3.3948 6.0932-3.3078 2.6984-5.658 2.6984-0.95751 0-3.3948-1.2186t-3.743-1.2186q-7.7471 0-17.061 5.2228-9.314 5.2228-9.314 12.186 0 3.3948 3.3078 6.6155 3.3078 3.1337 13.492 7.9212 15.059 7.1378 19.847 12.883t4.7876 12.709q0 12.709-17.235 21.239-17.148 8.4435-38.562 8.4435-15.755 0-15.755-11.403 0-4.1782 3.3078-7.1378t7.3989-2.9596q1.6539 0 5.1357 1.2186 3.4819 1.3057 6.4414 1.3057 8.1824 0 17.148-2.6114t11.838-6.4414z" style="font-variant-caps:normal;font-variant-east-asian:normal;font-variant-ligatures:normal;font-variant-numeric:normal"/>
  </g>
</svg>
