<svg width="210mm" height="297mm" version="1.1" viewBox="0 0 210 297" xmlns="http://www.w3.org/2000/svg" xmlns:xlink="http://www.w3.org/1999/xlink">
 <defs>
  <linearGradient id="linearGradient989" x1="70.655" x2="89.024" y1="109.77" y2="139.9" gradientTransform="matrix(5.5526 0 0 5.5526 -347.56 -552.63)" gradientUnits="userSpaceOnUse">
  <stop stop-color="#06b6d4" offset="0"/>
   <stop stop-color="#1a1fa4" offset="1"/>
  </linearGradient>
 </defs>
 <g transform="scale(.91528 1.0926)" fill="url(#linearGradient989)" stroke-width="1.4691" aria-label="VS">
  <path d="m35.336 49.141v30.917l29.965 78.718 29.965-78.718v-30.917q0-4.9942 2.8538-8.2048 2.8538-3.2106 7.3724-3.2106 4.5186 0 7.3724 3.2106 2.8538 3.0917 2.8538 8.2048v34.841l-40.191 102.74q-1.9026 5.1131-4.2807 6.8968-2.2593 1.9026-5.9455 1.9026-3.8051 0-6.3022-2.0215-2.4971-2.0215-4.1618-6.7778l-39.954-102.74v-34.841q0-5.232 2.7349-8.3237 2.8538-3.0917 7.4913-3.0917 4.3997 0 7.2535 3.2106 2.9727 3.2106 2.9727 8.2048z"/>
  <path d="m134.48 100.46h50.418q11.059 0 19.263 8.0859 8.3237 7.967 8.3237 18.193 0 5.1131-2.8538 8.3237-2.8538 3.0916-7.3724 3.0916-4.3997 0-6.7778-2.2593-2.3782-2.3782-3.924-9.8695-0.35673-1.9026-2.3782-3.4484-2.0215-1.6647-4.2808-1.6647h-50.418q-0.83236 0-1.6647 0.83237-0.71346 0.71346-0.71346 1.5458 0 0.35673 0.11891 0.83236 0.23782 0.35673 0.59455 0.95128l73.367 94.176q3.2106 4.2807 4.7564 8.2048 1.5458 3.924 1.5458 7.967 0 9.3939-6.7778 16.053-6.6589 6.7779-16.172 6.7779h-50.418q-10.94 0-19.263-8.0859-8.2048-8.0859-8.2048-18.193 0-5.1131 2.8538-8.2048 2.8538-3.2106 7.3724-3.2106 4.2808 0 6.6589 2.3782 2.3782 2.2593 4.0429 9.7506 0.35673 1.9026 2.3782 3.5673 2.0215 1.5458 4.1618 1.5458h50.418q1.0702 0 1.7836-0.71345 0.71346-0.71346 0.71346-1.6647 0-0.35673-0.23782-0.71346-0.11891-0.47564-0.47564-1.0702l-73.367-94.176q-3.2106-4.2808-4.7564-8.2048-1.5458-3.924-1.5458-7.9669 0-9.3939 6.6589-16.053 6.7778-6.7778 16.172-6.7778z"/>
 </g>
</svg>
