<svg width="800px" height="800px" fill="#1a1fa4" version="1.1" viewBox="0 0 256 256" xmlns="http://www.w3.org/2000/svg">
 <path d="m248.33 127.21a13.227 13.227 0 0 0 5e-3 -2.7708 119.77 119.77 0 0 0-118.75-118.74c-0.44096-0.045034-0.88788-0.069445-1.3406-0.070534h-0.0238a13.597 13.597 0 0 0-1.402 0.07487 119.77 119.77 0 0 0-118.34 118.35 13.464 13.464 0 0 0-0.07389 1.4128c8.11e-4 0.44652 0.02536 0.88705 0.06889 1.3222a119.78 119.78 0 0 0 118.78 118.77c0.43077 0.0429 0.86697 0.0678 1.3089 0.0689h0.0239a13.432 13.432 0 0 0 1.3932-0.0738 119.77 119.77 0 0 0 118.35-118.34zm-185.92-67.58a92.805 92.805 0 0 1 51.312-26.118 93.357 93.357 0 0 1-77.431 77.43 92.806 92.806 0 0 1 26.118-51.312zm-26.467 78.29a119.11 119.11 0 0 0 70.465-34.292 119.11 119.11 0 0 0 34.292-70.465 93.06 93.06 0 0 1 80.17 80.17 120.05 120.05 0 0 0-104.76 104.76 93.061 93.061 0 0 1-80.17-80.171zm107.15 79.822a93.357 93.357 0 0 1 77.431-77.43 93.043 93.043 0 0 1-77.431 77.43z" />
</svg>
