<svg id="_x32_" width="800px" height="800px" version="1.1" viewBox="0 0 512 512" xmlns="http://www.w3.org/2000/svg">
 <style type="text/css">.st0{fill:#1a1fa4;}</style>
 <g transform="matrix(1 0 0 1.2654 0 -64.696)">
  <path class="st0" d="m485.61 188.85c-25.472-11.892-46.128-16.635-52.926-23.064-6.798-6.437-3.932-23.072-13.859-22.802-9.927 0.262-18.51 15.029-17.822 22.646 0.655 7.371 20.771 22.146 20.771 22.146l-31.828-10.91s-3.211-21.107-0.704-26.471c2.49-5.365 20.918-34.318-10.025-52.034-30.927-17.707-62.493 14.923-51.223 64.294 0 0-56.677-2.458-82.476-7.552-9.73-1.925-71.224-20.1-79.971-25.816-8.764-5.717-20.394-19.313-33.171-26.914-12.794-7.601 3.915 23.064 14.923 37.987 3.489 6.536-2.358 5.046-13.285 4.84-7.387-0.139-8.174 9.656 9.076 11.18 12.17 1.064 34.514 3.03 34.514 3.03s36.054 19.23 55.154 24.26c26.553 6.994 54.204 7.813 54.204 7.813-9.059 14.153-8.895 32.467-14.94 43.851-10.745 20.197-37.922 5.979-37.922 5.979s-74.647-36.889-80.626-38.052c-5.995-1.163-94.844-37.356-101.38-43.081-2.572-2.244 35.645-28.306 17.822-35.644-13.76-5.66-37.234 0.844-48.684 18.371-11.434 17.523-26.373 28.514-19.492 38.261 6.88 9.746 19.493 10.729 24.145 11.27 7.306 0.835 77.939 48.593 105.05 59.118 20.738 8.043 91.094 57.628 91.094 57.628 10.893 4.636 48.192 43.72 48.192 43.72s-44.67-4.03-51.992-5.816c-7.338-1.793-30.288-30.468-35.743-36.283-5.455-5.807-13.875 1.704-11.712 7.592-2.424 8.674-6.683 28.331 5.472 37.266s36.251 24.678 36.251 24.678 73.828 31.632 104.16 37.52c31.451 6.102 56.678-31.934 38.331-64.597-11.827-21.034-14.84-40.821-14.84-40.821s30.844-16.217 66.326-63.361c26.995-5.357 88.62-3.538 100.15-17.757 11.528-14.218 4.468-30.574-21.02-42.475z"/>
 </g>
</svg>
